<svg class="img-fluid" id="outputsvg" xmlns="http://www.w3.org/2000/svg" style="transform: none; transform-origin: 50% 50%; cursor: move;" width="1024" height="1024" viewBox="0 0 10240 10240"><g id="l1lzk6ZYn61tDwbm0LRQAzI" fill="rgb(35,152,72)" style="transform: none;"><g><path id="pGaL8xHNI" d="M3543 9743 c-7 -2 -13 -13 -13 -24 0 -17 8 -19 90 -19 89 0 90 0 90 25 0 25 -1 25 -77 24 -43 0 -84 -3 -90 -6z"></path><path id="pX26zX6YO" d="M3800 9730 c0 -16 7 -20 35 -20 28 0 35 4 35 20 0 16 -7 20 -35 20 -28 0 -35 -4 -35 -20z"></path><path id="p81ACtq2l" d="M4000 9725 c0 -24 2 -25 64 -25 76 0 435 -35 561 -55 361 -57 631 -114 970 -207 121 -33 258 -71 305 -84 47 -12 121 -33 165 -45 320 -87 742 -194 805 -204 25 -4 110 -20 190 -35 288 -57 524 -92 735 -110 177 -15 195 -14 195 9 0 24 -14 27 -190 41 -371 30 -896 128 -1405 263 -253 68 -721 196 -791 217 -172 52 -768 177 -1002 210 -111 15 -490 50 -549 50 -50 0 -53 -1 -53 -25z"></path><path id="p13FnE2CQX" d="M3398 9733 c-10 -2 -18 -13 -18 -24 0 -16 7 -19 55 -19 52 0 55 1 55 25 0 22 -4 25 -37 24 -21 -1 -46 -3 -55 -6z"></path><path id="pjbrF6zpW" d="M3230 9714 c-47 -8 -115 -19 -152 -25 -56 -9 -68 -14 -68 -30 0 -24 6 -24 202 2 153 21 158 23 158 45 0 28 -10 29 -140 8z"></path><path id="pMJM9pUDr" d="M2830 9636 c-225 -60 -220 -59 -220 -79 0 -17 6 -18 48 -14 54 5 165 37 170 49 2 4 13 8 25 8 11 0 47 5 79 12 50 10 58 15 58 35 0 30 -8 29 -160 -11z"></path><path id="p18DPSUadV" d="M2495 9534 c-119 -46 -309 -140 -326 -161 -13 -15 -6 -15 81 -9 132 10 143 14 137 42 -3 20 4 26 57 50 34 15 63 30 66 34 3 4 22 10 43 14 33 6 37 10 37 36 0 17 -1 30 -2 30 -2 -1 -43 -17 -93 -36z"></path><path id="pCXyw0uhF" d="M2580 9418 l0 -23 305 -1 305 -1 0 23 0 24 -305 0 -305 0 0 -22z"></path><path id="p11aaEY5TK" d="M3420 9401 c0 -21 8 -23 148 -36 60 -6 62 -5 62 18 0 22 -5 25 -67 30 -119 12 -143 10 -143 -12z"></path><path id="pWLrgb2CJ" d="M3640 9382 c0 -23 10 -26 125 -37 68 -7 546 -87 655 -110 91 -19 90 -19 90 8 0 22 -9 25 -192 60 -246 47 -479 83 -590 92 -85 7 -88 7 -88 -13z"></path><path id="p13UVOVz2B" d="M4520 9230 c0 -11 7 -20 15 -20 28 0 1011 -239 1188 -288 l67 -19 0 26 c0 24 -6 28 -87 50 -158 42 -327 81 -355 81 -16 0 -28 4 -28 9 0 5 -48 20 -107 35 -60 14 -175 42 -258 61 -381 92 -435 100 -435 65z"></path><path id="pYCd0P9KH" d="M2525 9114 c-566 -37 -1047 -141 -1435 -312 -214 -94 -485 -250 -650 -372 -71 -53 -187 -166 -179 -175 3 -3 44 11 91 30 165 66 409 133 693 189 184 36 329 53 618 72 439 29 1047 -2 1557 -81 495 -77 817 -145 1559 -331 272 -68 537 -133 590 -144 53 -10 150 -30 216 -44 484 -100 896 -151 1330 -166 514 -18 908 20 1346 130 226 57 417 128 644 240 309 153 458 253 687 466 138 130 235 237 219 242 -6 2 -96 -30 -199 -71 -193 -78 -464 -167 -657 -217 -152 -39 -526 -107 -725 -131 -512 -61 -1252 -42 -1800 46 -447 73 -660 119 -1610 351 -457 112 -1099 221 -1520 259 -167 16 -649 27 -775 19z"></path><path id="pxuKioebW" d="M9273 9032 c-107 -15 -112 -17 -115 -41 -4 -34 -28 -40 -28 -6 0 26 -1 27 -47 21 -104 -13 -312 -26 -422 -26 -64 0 -140 -3 -168 -6 -44 -6 -53 -10 -53 -27 0 -20 4 -20 220 -14 134 3 220 2 220 -4 0 -5 14 -9 30 -9 17 0 30 -4 30 -10 0 -5 8 -10 18 -11 44 -1 -305 -98 -448 -123 -115 -21 -395 -56 -447 -56 -39 0 -43 -2 -43 -25 0 -32 12 -32 266 0 424 54 766 150 1062 299 50 25 92 48 92 51 0 7 -42 4 -167 -13z"></path><path id="pMYkyqmJi" d="M8000 8968 c0 -24 3 -25 77 -32 42 -3 138 -6 215 -6 127 0 138 1 138 18 0 17 -13 19 -152 25 -84 4 -181 10 -215 13 -62 7 -63 7 -63 -18z"></path><path id="p3oiLVt7R" d="M5800 8921 c0 -15 16 -22 80 -39 l80 -20 0 28 c0 25 -4 28 -57 39 -82 16 -103 15 -103 -8z"></path><path id="p12pWoq8GD" d="M5970 8880 c0 -11 2 -20 5 -20 2 0 100 -20 216 -45 231 -50 603 -106 857 -130 210 -19 202 -20 202 8 0 23 -3 23 -157 36 -87 7 -203 19 -258 27 -55 8 -152 21 -215 29 -124 17 -249 40 -457 86 -161 35 -193 37 -193 9z"></path><path id="pwCjdT5ag" d="M7290 8691 c0 -22 26 -31 93 -31 44 0 47 2 47 25 0 24 -2 25 -70 25 -62 0 -70 -2 -70 -19z"></path><path id="pFxUNArLr" d="M7520 8680 c0 -19 7 -20 115 -20 108 0 115 1 115 20 0 19 -7 20 -115 20 -108 0 -115 -1 -115 -20z"></path><path id="pbhS9XRiY" d="M2470 8094 c0 -3 62 -87 138 -187 242 -319 336 -456 524 -761 332 -537 526 -936 712 -1461 171 -485 295 -1059 351 -1625 36 -371 38 -930 5 -1260 -81 -785 -311 -1617 -652 -2353 -28 -60 -48 -110 -45 -113 12 -12 463 195 682 313 1030 554 1936 1235 2631 1975 389 413 591 666 871 1085 328 491 575 995 747 1522 203 620 298 1225 283 1796 -6 209 -32 528 -46 551 -4 7 -62 -10 -166 -48 -897 -330 -1800 -414 -2865 -267 -676 93 -1359 258 -2315 559 -254 80 -509 165 -714 239 -111 40 -141 47 -141 35z"></path></g></g></svg>