<svg class="img-fluid" id="outputsvg" xmlns="http://www.w3.org/2000/svg" style="transform: matrix(0.856831, 0, 0, 0.856831, -8.73254, 5.89421); transform-origin: 50% 50%; cursor: move; transition: transform 200ms ease-in-out;" width="1120" height="928" viewBox="0 0 11200 9280"><g id="l5dmo2QksnG4iXogNZ5M6xl" fill="rgb(103,180,131)" style="transform: none;"><g style="transform: none;"><path id="pLgt1s6N5" d="M2085 8906 c-258 -51 -390 -200 -421 -473 -6 -60 -5 -63 15 -63 18 0 21 6 21 38 0 40 30 184 41 192 13 11 29 50 29 74 0 18 6 25 23 28 14 2 23 11 25 26 2 14 10 22 23 22 10 0 24 9 31 20 7 11 18 20 25 20 6 0 13 4 15 8 5 12 98 50 164 67 32 8 86 15 121 15 73 0 212 -28 231 -47 7 -7 24 -16 38 -19 13 -3 24 -10 24 -15 0 -5 7 -9 15 -9 8 0 15 -4 15 -10 0 -5 16 -10 35 -10 33 0 35 -2 35 -35 0 -28 4 -35 20 -35 15 0 20 -7 20 -25 0 -27 19 -75 31 -75 4 0 9 -15 12 -32 19 -116 19 -118 39 -118 17 0 19 5 12 48 -24 165 -117 294 -259 362 -109 52 -258 70 -380 46z"></path><path id="pzLwSQQLx" d="M7738 8913 c-10 -2 -18 -11 -18 -19 0 -11 17 -14 75 -14 57 0 75 3 75 14 0 22 -78 33 -132 19z"></path><path id="pBxaQHNAm" d="M825 8895 c-209 -38 -377 -167 -455 -351 -25 -58 -25 -74 0 -74 15 0 20 7 20 25 0 14 4 25 9 25 5 0 15 16 22 35 7 19 17 35 21 35 4 0 8 14 8 30 0 22 5 30 18 30 23 0 42 19 42 42 0 11 7 18 20 18 11 0 25 9 32 20 7 11 18 20 24 20 5 0 19 8 30 19 11 10 30 22 42 25 12 4 28 13 34 19 18 17 88 36 181 50 63 9 77 15 77 29 0 21 -23 22 -125 3z"></path><path id="psRJ3HlTx" d="M990 8891 c0 -16 6 -21 27 -21 47 0 183 -24 183 -32 0 -4 9 -8 21 -8 11 0 27 -7 35 -15 9 -8 29 -15 45 -15 18 0 29 -5 29 -14 0 -8 9 -18 21 -21 12 -4 30 -16 40 -26 18 -18 19 -36 19 -245 0 -209 1 -225 18 -222 15 3 17 23 20 232 2 192 0 233 -13 252 -18 28 -176 105 -260 127 -33 9 -88 19 -122 23 -60 6 -63 5 -63 -15z"></path><path id="pGxZ9ZtGV" d="M7586 8894 c-109 -24 -286 -98 -286 -121 0 -11 92 -213 97 -213 13 0 103 54 103 62 0 14 -68 9 -84 -8 -15 -14 -16 -13 -16 9 0 36 -10 57 -26 57 -9 0 -14 11 -14 29 0 16 -2 36 -5 43 -4 9 7 18 30 27 19 6 40 18 47 24 15 15 74 32 185 55 66 13 83 21 83 35 0 21 -19 21 -114 1z"></path><path id="pJEeo6ndt" d="M7880 8891 c0 -14 10 -20 48 -25 26 -3 76 -20 110 -36 35 -17 70 -30 78 -30 8 0 14 -6 14 -13 0 -19 43 -57 63 -57 12 0 17 -9 17 -30 0 -16 4 -30 9 -30 5 0 12 -22 16 -50 6 -41 10 -50 27 -50 18 0 20 4 14 41 -22 137 -136 246 -298 284 -83 19 -98 19 -98 -4z"></path><path id="p14BvBQz1T" d="M5523 8893 c-7 -2 -13 -11 -13 -19 0 -10 14 -14 55 -14 40 0 55 4 55 14 0 21 -63 33 -97 19z"></path><path id="p19wsdzf0t" d="M6313 8893 c-7 -2 -13 -14 -13 -25 0 -18 4 -20 31 -14 17 3 51 6 75 6 48 0 62 23 22 34 -27 7 -98 7 -115 -1z"></path><path id="pD2yOVYrw" d="M6847 8893 c-4 -3 -7 -12 -7 -20 0 -10 28 -13 125 -13 100 0 125 3 125 14 0 7 -10 16 -22 20 -31 8 -213 8 -221 -1z"></path><path id="p13u1zQIP7" d="M8331 8891 c-17 -11 -20 -5 111 -306 349 -803 382 -875 400 -875 10 0 18 7 18 15 0 20 -22 65 -32 65 -4 0 -8 9 -8 19 0 30 -11 51 -26 51 -9 0 -14 12 -14 34 0 19 -7 41 -15 50 -8 8 -15 21 -15 29 0 26 -12 47 -26 47 -9 0 -14 12 -14 34 0 19 -7 41 -15 50 -8 8 -15 21 -15 29 0 26 -12 47 -26 47 -9 0 -14 12 -14 34 0 19 -7 41 -15 50 -8 8 -15 24 -15 35 0 11 -7 26 -15 35 -8 8 -15 24 -15 35 0 11 -7 26 -15 35 -8 8 -15 21 -15 30 0 21 -21 66 -32 66 -4 0 -8 11 -8 24 0 14 -7 31 -15 40 -8 8 -15 24 -15 35 0 12 -6 21 -14 21 -9 0 -15 14 -18 40 l-4 40 96 0 96 0 18 -50 c10 -27 22 -50 27 -50 5 0 9 -8 9 -17 0 -10 7 -37 16 -60 13 -34 22 -43 40 -43 23 0 24 1 11 33 -7 17 -31 73 -51 124 -28 67 -44 93 -60 97 -33 9 -230 7 -245 -3z"></path><path id="pFxFQEK0V" d="M9352 8888 c-7 -7 -12 -16 -12 -20 0 -4 56 -8 125 -8 118 0 125 -1 125 -20 0 -11 -6 -20 -13 -20 -18 0 -47 -63 -47 -100 0 -18 -5 -30 -13 -30 -15 0 -47 -61 -47 -90 0 -11 -4 -20 -8 -20 -11 0 -32 -45 -32 -66 0 -9 -7 -22 -15 -30 -8 -9 -15 -26 -15 -40 0 -13 -4 -24 -8 -24 -11 0 -32 -46 -32 -70 0 -11 -4 -20 -8 -20 -11 0 -32 -45 -32 -66 0 -9 -7 -22 -15 -30 -8 -9 -15 -24 -15 -35 0 -11 -7 -27 -15 -35 -8 -9 -15 -31 -15 -50 0 -22 -5 -34 -14 -34 -17 0 -26 -22 -26 -61 0 -18 -5 -29 -14 -29 -14 0 -26 -21 -26 -47 0 -8 -7 -21 -15 -29 -8 -9 -15 -24 -15 -35 0 -11 -7 -27 -15 -35 -17 -17 -21 -84 -4 -84 5 0 18 19 29 43 156 358 362 823 414 936 36 78 63 147 60 152 -8 14 -268 11 -282 -3z"></path><path id="pXl7TEB60" d="M9783 8893 c-25 -3 -33 -9 -33 -25 0 -18 4 -20 31 -14 17 3 53 6 80 6 35 0 49 4 49 14 0 23 -43 29 -127 19z"></path><path id="pHh9jciDa" d="M10018 8893 c-10 -2 -18 -11 -18 -19 0 -12 33 -14 195 -14 159 0 195 3 195 14 0 7 -10 16 -22 20 -26 7 -324 6 -350 -1z"></path><path id="pGk9dy9pa" d="M2977 8883 c-4 -3 -7 -17 -7 -30 0 -16 6 -23 20 -23 16 0 20 7 20 30 0 28 -17 40 -33 23z"></path><path id="poJnUjP1g" d="M3987 8883 c-4 -3 -7 -263 -7 -578 0 -441 3 -575 13 -588 11 -16 47 -17 442 -15 400 3 430 4 433 21 3 16 -22 17 -422 17 l-426 0 0 575 c0 473 -2 575 -13 575 -8 0 -17 -3 -20 -7z"></path><path id="pSYc3DAdL" d="M4230 8870 c0 -13 7 -20 20 -20 13 0 20 7 20 20 0 13 -7 20 -20 20 -13 0 -20 -7 -20 -20z"></path><path id="pn7II6nze" d="M10470 8871 c0 -14 10 -20 42 -25 45 -7 161 -55 166 -68 2 -4 17 -8 33 -8 26 0 29 -4 29 -30 0 -25 4 -30 25 -30 34 0 32 13 -9 58 -43 47 -113 86 -191 107 -78 20 -95 19 -95 -4z"></path><path id="pQ926qGEy" d="M9299 8783 c-17 -38 -38 -85 -46 -105 -8 -21 -19 -38 -24 -38 -5 0 -9 -4 -9 -10 0 -5 14 -10 30 -10 24 0 30 4 30 21 0 11 7 27 15 35 8 9 15 31 15 50 0 22 5 34 14 34 17 0 26 22 26 61 0 47 -19 33 -51 -38z"></path><path id="pK8be2hP5" d="M7710 8714 c-8 -1 -36 -6 -62 -9 -39 -5 -48 -10 -48 -26 0 -19 4 -20 43 -12 23 4 92 8 152 8 97 0 114 -3 147 -23 23 -14 42 -36 50 -58 15 -42 38 -45 38 -5 0 39 -9 61 -26 61 -8 0 -14 7 -14 15 0 10 -11 15 -35 15 -23 0 -35 5 -35 14 0 20 -145 34 -210 20z"></path><path id="p9P30CzFj" d="M10000 8665 c0 -39 24 -50 33 -15 3 11 12 20 21 20 9 0 16 7 16 15 0 10 -11 15 -35 15 -33 0 -35 -2 -35 -35z"></path><path id="pbVgehOjn" d="M10380 8687 c0 -11 17 -19 55 -27 63 -13 112 -54 117 -98 10 -80 -34 -143 -113 -162 -32 -8 -49 -17 -49 -27 0 -13 10 -15 51 -11 28 3 54 10 58 15 3 6 15 12 25 14 10 2 24 13 30 24 6 11 15 23 20 26 14 11 21 149 7 149 -6 0 -11 11 -11 25 0 16 -6 25 -15 25 -8 0 -15 7 -15 15 0 8 -9 15 -19 15 -11 0 -21 5 -23 10 -2 6 -29 14 -61 17 -48 5 -57 3 -57 -10z"></path><path id="p162FASw33" d="M10780 8676 c0 -54 12 -86 32 -86 18 0 19 4 13 37 -12 66 -45 102 -45 49z"></path><path id="p13awaMTwU" d="M860 8670 c0 -21 10 -24 48 -14 36 10 27 34 -13 34 -28 0 -35 -4 -35 -20z"></path><path id="p133rCITMe" d="M1030 8678 c0 -10 17 -20 48 -27 26 -6 59 -17 75 -23 l27 -10 0 -142 c0 -153 5 -186 26 -186 11 0 14 32 14 171 0 184 -4 199 -53 199 -14 0 -27 5 -29 10 -2 6 -27 13 -56 17 -43 5 -52 3 -52 -9z"></path><path id="puusMiNoT" d="M2088 8683 c-11 -3 -18 -14 -18 -28 l0 -23 50 16 c57 18 68 43 18 41 -18 -1 -41 -3 -50 -6z"></path><path id="pg37jUt6N" d="M2230 8678 c0 -10 18 -20 47 -29 84 -23 163 -128 163 -218 0 -41 11 -71 26 -71 10 0 14 13 14 40 0 62 -20 140 -36 140 -9 0 -14 11 -14 30 0 27 -3 30 -30 30 -27 0 -30 3 -30 30 0 23 -5 30 -19 30 -11 0 -21 5 -23 11 -2 6 -25 13 -51 16 -37 5 -47 3 -47 -9z"></path><path id="pDm143L63" d="M3220 8635 c0 -41 24 -49 34 -10 4 14 11 25 16 25 6 0 10 5 10 10 0 6 -13 10 -30 10 -28 0 -30 -3 -30 -35z"></path><path id="pl8Pn8CNm" d="M7510 8645 c0 -24 1 -25 32 -12 46 19 48 37 4 37 -32 0 -36 -3 -36 -25z"></path><path id="p18pci2TLu" d="M770 8641 c0 -15 -8 -21 -32 -23 -25 -2 -34 -8 -36 -25 -2 -15 -10 -23 -24 -23 -11 0 -22 -8 -25 -20 -3 -11 -9 -20 -14 -20 -5 0 -9 -13 -9 -30 0 -19 -5 -30 -14 -30 -15 0 -36 -70 -36 -119 0 -53 27 -38 40 22 6 28 20 71 31 95 26 52 98 126 150 153 48 24 50 39 4 39 -28 0 -35 -4 -35 -19z"></path><path id="pPAGvTspJ" d="M1990 8610 c0 -11 -7 -20 -15 -20 -10 0 -15 -10 -15 -30 0 -19 -5 -30 -14 -30 -14 0 -26 -42 -26 -91 0 -50 27 -35 39 22 14 62 23 80 68 130 l35 39 -36 0 c-29 0 -36 -4 -36 -20z"></path><path id="pj13iw7Cy" d="M7982 8516 c-24 -41 -71 -60 -273 -111 -156 -39 -230 -68 -288 -114 -42 -34 -86 -108 -96 -163 -6 -34 -5 -38 14 -38 17 0 21 8 27 50 4 32 11 50 20 50 8 0 14 5 14 11 0 6 11 20 25 31 14 11 25 26 25 34 0 8 9 14 19 14 11 0 26 6 33 13 15 15 142 56 268 87 153 38 210 59 210 81 0 12 7 19 20 19 16 0 20 7 20 35 0 44 -12 44 -38 1z"></path><path id="p1FH26Tu6t" d="M8227 8467 c-10 -28 -21 -70 -24 -92 l-5 -40 21 19 c22 20 61 113 61 146 0 12 -7 20 -17 20 -13 0 -24 -17 -36 -53z"></path><path id="p1ThSdocD" d="M10784 8470 c-4 -32 -11 -50 -20 -50 -8 0 -14 -8 -14 -19 0 -10 -9 -21 -21 -24 -11 -3 -23 -15 -26 -26 -3 -12 -14 -21 -24 -21 -11 0 -19 -4 -19 -10 0 -5 -6 -10 -14 -10 -17 0 -26 -22 -26 -61 0 -27 3 -29 37 -29 l36 0 -20 23 -21 22 48 33 c53 36 95 90 116 149 19 54 18 73 -6 73 -16 0 -21 -9 -26 -50z"></path><path id="pClELbzgR" d="M336 8437 c-3 -13 -8 -49 -12 -80 -6 -54 -5 -57 15 -57 16 0 21 6 21 28 0 15 3 51 6 80 6 43 4 52 -9 52 -8 0 -17 -10 -21 -23z"></path><path id="p8G653njC" d="M9100 8445 c0 -8 6 -15 14 -15 8 0 18 -4 21 -10 3 -5 -28 -90 -69 -187 -41 -98 -80 -191 -86 -208 -14 -37 -10 -44 -88 145 -84 202 -100 252 -84 257 23 9 12 23 -18 23 -26 0 -30 -4 -30 -27 0 -34 40 -153 52 -153 4 0 8 -11 8 -25 0 -14 5 -25 10 -25 6 0 10 -11 10 -24 0 -14 7 -31 15 -40 8 -8 15 -20 15 -28 0 -7 12 -43 27 -80 24 -62 29 -68 55 -68 15 0 28 5 28 10 0 6 9 10 20 10 15 0 20 7 20 25 0 14 4 25 9 25 9 0 41 77 41 99 0 7 7 19 15 27 8 9 15 24 15 35 0 11 7 27 15 35 8 9 15 26 15 40 0 13 5 24 10 24 6 0 10 11 10 25 0 14 5 25 10 25 6 0 10 23 10 50 l0 50 -35 0 c-24 0 -35 -5 -35 -15z"></path><path id="p2g9iN5c2" d="M4770 8341 c0 -90 3 -111 15 -111 19 0 27 47 23 140 -2 62 -6 75 -20 78 -16 3 -18 -7 -18 -107z"></path><path id="p3iXrDxYs" d="M5760 8405 c0 -33 2 -35 35 -35 39 0 50 24 15 33 -11 3 -20 12 -20 21 0 9 -7 16 -15 16 -10 0 -15 -11 -15 -35z"></path><path id="peGziyfna" d="M6300 8424 c0 -9 -9 -18 -20 -21 -35 -9 -24 -33 15 -33 33 0 35 2 35 35 0 24 -5 35 -15 35 -8 0 -15 -7 -15 -16z"></path><path id="ppyEoQQgW" d="M10000 8395 c0 -33 2 -35 35 -35 39 0 50 24 15 33 -11 3 -20 12 -20 21 0 9 -7 16 -15 16 -10 0 -15 -11 -15 -35z"></path><path id="p17G4vmMGH" d="M1910 8205 c0 -158 1 -165 20 -165 19 0 20 7 20 165 0 158 -1 165 -20 165 -19 0 -20 -7 -20 -165z"></path><path id="pbzWW3FKu" d="M8120 8322 c0 -4 -16 -14 -35 -21 -19 -7 -35 -16 -35 -21 0 -4 -12 -10 -27 -13 -82 -14 -368 -96 -371 -106 -2 -6 -11 -11 -20 -11 -9 0 -27 -12 -39 -27 -19 -22 -23 -38 -23 -95 0 -37 4 -68 9 -68 5 0 11 -9 14 -20 4 -15 14 -20 36 -20 20 0 31 -5 31 -14 0 -13 48 -26 103 -26 42 0 34 28 -10 35 -124 21 -181 85 -141 158 25 48 67 66 251 113 165 41 252 75 298 114 l34 29 -37 1 c-21 0 -38 -4 -38 -8z"></path><path id="pXZi9nNBY" d="M324 8238 c11 -80 17 -98 33 -98 13 0 15 9 9 53 -3 28 -6 62 -6 75 0 16 -6 22 -21 22 -20 0 -21 -3 -15 -52z"></path><path id="pA26QbVM0" d="M2700 8015 l0 -275 -60 0 c-47 0 -60 -3 -60 -15 0 -8 8 -16 18 -16 46 -4 124 0 130 6 9 9 15 499 7 543 -3 19 -12 32 -20 32 -13 0 -15 -41 -15 -275z"></path><path id="p11BTpDN2I" d="M583 8216 c6 -56 43 -156 58 -156 5 0 9 -7 9 -15 0 -10 10 -15 30 -15 27 0 30 -3 30 -30 0 -28 3 -30 37 -30 l37 0 -51 48 c-56 52 -98 125 -114 202 -7 34 -16 50 -26 50 -13 0 -15 -9 -10 -54z"></path><path id="p8BabWTsH" d="M10010 8190 c0 -16 5 -30 10 -30 6 0 10 5 10 10 0 6 63 10 170 10 163 0 170 1 170 20 0 19 -7 20 -180 20 l-180 0 0 -30z"></path><path id="pmh5W7NwA" d="M10380 8197 c0 -7 16 -19 35 -25 36 -14 85 -64 85 -88 0 -8 7 -14 15 -14 10 0 15 11 15 35 0 19 -4 35 -10 35 -5 0 -10 7 -10 15 0 8 -15 24 -32 35 -38 23 -98 27 -98 7z"></path><path id="pHIICXS5N" d="M10700 8182 c0 -16 10 -51 21 -77 21 -48 22 -62 3 -177 -4 -23 -12 -38 -20 -38 -9 0 -14 -12 -14 -35 0 -33 -2 -35 -35 -35 -19 0 -35 -4 -35 -8 0 -4 -16 -14 -35 -21 -19 -7 -35 -16 -35 -21 0 -4 -27 -11 -60 -15 -51 -6 -60 -10 -60 -27 0 -18 4 -20 47 -13 126 19 232 91 273 187 41 95 24 250 -33 297 -15 12 -17 10 -17 -17z"></path><path id="pe9XtmSXq" d="M5770 8170 c0 -28 14 -42 22 -20 2 7 343 14 496 10 6 0 12 -7 12 -15 0 -8 7 -15 15 -15 10 0 15 11 15 35 l0 35 -280 0 -280 0 0 -30z"></path><path id="phd86D9Ey" d="M350 8111 c0 -30 67 -153 112 -205 41 -48 151 -136 169 -136 5 0 9 11 9 25 0 16 -6 25 -15 25 -8 0 -15 5 -15 10 0 6 -8 10 -19 10 -10 0 -21 9 -24 20 -4 15 -14 20 -41 20 -34 0 -36 1 -36 35 0 24 -5 35 -15 35 -8 0 -15 9 -15 20 0 11 -4 20 -10 20 -5 0 -10 6 -10 14 0 8 -6 21 -13 28 -7 7 -19 32 -26 56 -10 29 -20 42 -33 42 -11 0 -18 -7 -18 -19z"></path><path id="pi5KX5JWD" d="M1228 8007 c-26 -18 -48 -35 -48 -39 0 -5 16 -8 35 -8 19 0 35 5 35 10 0 6 7 10 15 10 10 0 15 10 15 30 0 17 -1 30 -2 29 -2 0 -24 -15 -50 -32z"></path><path id="pcR0cLp14" d="M7320 8010 c0 -39 42 -129 79 -171 53 -60 131 -105 225 -129 99 -25 116 -25 116 -1 0 14 -10 20 -45 25 -50 6 -178 54 -183 68 -2 4 -9 8 -15 8 -7 0 -18 9 -25 20 -7 11 -19 20 -27 20 -8 0 -15 7 -15 15 0 7 -6 18 -13 22 -15 9 -57 103 -57 127 0 9 -9 16 -20 16 -13 0 -20 -7 -20 -20z"></path><path id="pGp6nNR6X" d="M1320 7990 c0 -29 8 -44 39 -74 38 -37 39 -38 20 -57 -10 -10 -23 -19 -29 -19 -5 0 -10 -4 -10 -9 0 -5 -11 -12 -25 -15 -18 -5 -25 -13 -25 -31 0 -14 4 -25 8 -25 14 0 125 75 146 98 19 21 18 22 -52 94 l-72 73 0 -35z"></path><path id="pURfzB2mc" d="M10458 7968 c-21 -22 -38 -42 -38 -44 0 -10 67 -3 78 8 13 13 17 79 5 77 -5 -1 -25 -20 -45 -41z"></path><path id="pd3Y2eewE" d="M8067 7973 c-46 -23 -133 -47 -209 -58 -26 -4 -38 -11 -38 -22 0 -14 10 -15 69 -9 90 8 201 42 201 61 0 30 27 14 45 -25 14 -30 24 -40 42 -40 22 0 23 1 9 33 -42 100 -41 99 -119 60z"></path><path id="p15s7JAHFU" d="M1098 7947 c-106 -32 -82 -63 28 -36 37 10 44 15 44 35 0 13 -1 23 -2 23 -2 -1 -33 -11 -70 -22z"></path><path id="p14wgRGBz6" d="M4240 7935 l0 -35 50 0 c61 0 71 25 15 36 -20 3 -35 12 -35 20 0 8 -7 14 -15 14 -10 0 -15 -11 -15 -35z"></path><path id="p7kuUMUhA" d="M10000 7925 c0 -33 2 -35 35 -35 39 0 50 24 15 33 -11 3 -20 12 -20 21 0 9 -7 16 -15 16 -10 0 -15 -11 -15 -35z"></path><path id="pYo9QBgG5" d="M860 7920 c0 -17 7 -20 40 -20 45 0 57 23 18 34 -42 11 -58 7 -58 -14z"></path><path id="pFCDyG4Ck" d="M4718 7933 c-10 -2 -18 -11 -18 -19 0 -11 18 -14 86 -14 76 0 85 2 82 18 -3 14 -15 17 -68 19 -36 0 -73 -1 -82 -4z"></path><path id="p1ETesMFdt" d="M10338 7923 c-10 -2 -18 -11 -18 -19 0 -10 13 -14 45 -14 38 0 45 3 45 20 0 15 -6 20 -27 19 -16 -1 -36 -3 -45 -6z"></path><path id="pFI8YK1zL" d="M8186 7830 c-5 -31 -11 -40 -26 -40 -11 0 -53 -11 -95 -25 -41 -14 -95 -28 -120 -32 -35 -4 -45 -10 -45 -24 0 -25 17 -24 132 5 92 23 190 65 203 86 6 10 -24 70 -36 70 -3 0 -9 -18 -13 -40z"></path><path id="pshNaCPOA" d="M6835 7807 c-10 -52 -2 -91 18 -95 15 -3 17 5 17 62 0 51 -3 66 -15 66 -8 0 -17 -14 -20 -33z"></path><path id="pckmCZKnV" d="M672 7758 c5 -15 104 -52 166 -63 38 -6 42 -5 42 14 0 14 -6 21 -18 21 -11 0 -45 9 -77 20 -67 23 -119 26 -113 8z"></path><path id="pguubM2Q8" d="M1160 7750 c-30 -11 -67 -19 -82 -19 -22 -1 -28 -6 -28 -22 0 -20 4 -21 48 -14 66 10 175 48 180 63 5 18 -52 14 -118 -8z"></path><path id="p1Ae7vEVet" d="M9752 7738 c5 -34 38 -37 38 -4 0 20 -5 26 -21 26 -15 0 -20 -5 -17 -22z"></path><path id="pNyWGtAKj" d="M1660 7733 c0 -24 33 -33 124 -33 75 0 106 8 106 26 0 11 -19 14 -84 14 -46 0 -98 3 -115 6 -26 6 -31 4 -31 -13z"></path><path id="p1H3IjP9RU" d="M1910 7730 c0 -13 7 -20 20 -20 13 0 20 7 20 20 0 13 -7 20 -20 20 -13 0 -20 -7 -20 -20z"></path><path id="pVYYhLmbT" d="M7080 7730 c0 -13 7 -20 20 -20 13 0 20 7 20 20 0 13 -7 20 -20 20 -13 0 -20 -7 -20 -20z"></path><path id="pscujLsRY" d="M2970 7726 c0 -21 23 -26 133 -26 115 0 147 6 147 26 0 11 -27 14 -140 14 -113 0 -140 -3 -140 -14z"></path><path id="pzqM5uiWl" d="M5510 7726 c0 -19 23 -26 88 -26 71 0 102 8 102 26 0 11 -21 14 -95 14 -75 0 -95 -3 -95 -14z"></path><path id="pL8HbaJJn" d="M900 7705 c0 -18 58 -30 105 -21 21 4 35 13 35 21 0 12 -15 15 -70 15 -55 0 -70 -3 -70 -15z"></path><path id="phVuNUksN" d="M4658 7123 c-10 -2 -18 -11 -18 -19 0 -11 22 -14 115 -14 91 0 115 3 115 14 0 7 -10 16 -22 20 -26 7 -164 6 -190 -1z"></path><path id="pK5z6hyfq" d="M4470 7114 c-14 -3 -77 -11 -140 -20 -118 -15 -379 -75 -437 -99 -50 -21 -42 -39 14 -32 26 3 49 10 51 16 2 6 14 11 27 11 13 0 71 11 129 25 114 28 348 65 409 65 30 0 37 4 37 20 0 20 -22 24 -90 14z"></path><path id="pa0bVTqoS" d="M4960 7100 c0 -17 7 -20 45 -20 49 0 64 23 23 34 -45 12 -68 7 -68 -14z"></path><path id="p182eZKhu2" d="M5070 7092 c0 -15 19 -20 138 -35 146 -18 423 -72 583 -112 112 -29 149 -31 149 -11 0 26 -444 123 -735 161 -146 18 -135 19 -135 -3z"></path><path id="pcwKFUnJ0" d="M3765 6949 c-77 -31 -213 -98 -220 -109 -8 -12 5 -12 79 0 33 5 63 15 68 22 6 10 8 10 8 1 0 -7 10 -13 23 -13 69 1 97 39 30 41 -31 2 -33 3 -10 6 15 2 27 9 27 14 0 5 11 9 25 9 20 0 25 5 25 25 0 14 -1 25 -2 24 -2 0 -25 -9 -53 -20z"></path><path id="ptXkyanjo" d="M5980 6910 c0 -16 7 -20 34 -20 19 0 36 -4 38 -8 4 -11 149 -52 182 -52 14 0 26 -4 26 -10 0 -5 15 -10 34 -10 19 0 36 -4 38 -9 4 -12 368 -109 603 -161 181 -39 453 -83 598 -96 67 -6 77 -5 77 9 0 18 6 17 -225 47 -307 40 -636 115 -1141 261 -132 38 -246 69 -252 69 -7 0 -12 -9 -12 -20z"></path><path id="p18PWc9ZZj" d="M3830 6880 c0 -21 23 -26 68 -14 41 11 26 34 -23 34 -38 0 -45 -3 -45 -20z"></path><path id="p1DKayBfo5" d="M4260 6886 c0 -15 30 -26 73 -26 20 0 27 5 27 20 0 17 -7 20 -50 20 -36 0 -50 -4 -50 -14z"></path><path id="p12TG4mEBf" d="M4420 6876 c0 -14 29 -26 68 -26 15 0 22 6 22 20 0 17 -7 20 -45 20 -32 0 -45 -4 -45 -14z"></path><path id="p171ONQ3Ha" d="M4520 6866 c0 -7 10 -16 23 -20 41 -11 57 -7 57 14 0 17 -7 20 -40 20 -27 0 -40 -4 -40 -14z"></path><path id="pcVVscTbh" d="M4610 6855 c0 -8 13 -16 33 -19 17 -3 104 -17 191 -31 196 -31 515 -100 741 -160 510 -135 795 -202 1045 -244 272 -46 280 -46 280 -24 0 16 -16 20 -123 35 -257 36 -441 78 -1260 287 -238 61 -488 113 -697 147 -182 28 -210 30 -210 9z"></path><path id="p35CIkTQW" d="M3738 6663 c-10 -2 -18 -11 -18 -19 0 -10 13 -14 45 -14 38 0 45 3 45 20 0 15 -6 20 -27 19 -16 -1 -36 -3 -45 -6z"></path><path id="pVWq5FXrY" d="M4180 6650 c0 -18 7 -20 55 -20 40 0 55 4 55 14 0 16 -30 26 -77 26 -26 0 -33 -4 -33 -20z"></path><path id="p8HBfxsxr" d="M3618 6653 c-10 -2 -18 -11 -18 -19 0 -10 13 -14 45 -14 38 0 45 3 45 20 0 15 -6 20 -27 19 -16 -1 -36 -3 -45 -6z"></path><path id="pfHCbJn9K" d="M4330 6640 c0 -17 7 -20 40 -20 45 0 57 23 18 34 -42 11 -58 7 -58 -14z"></path><path id="p1G8ZnUod2" d="M3440 6630 c-219 -37 -509 -120 -518 -147 -7 -22 46 -15 157 21 123 40 310 83 429 99 68 9 82 15 82 29 0 22 -11 22 -150 -2z"></path><path id="p5lnU4T6V" d="M4440 6631 c0 -16 11 -19 73 -25 198 -19 596 -98 969 -192 151 -37 188 -41 188 -20 0 16 -366 109 -651 167 -131 26 -530 89 -566 89 -7 0 -13 -8 -13 -19z"></path><path id="pEb2ty8om" d="M8535 6589 c-66 -10 -123 -18 -127 -18 -12 -1 -9 -31 2 -31 6 0 10 -11 10 -25 l0 -25 58 21 c76 29 202 86 202 93 0 7 2 7 -145 -15z"></path><path id="p1G1B0F0CF" d="M7630 6550 c0 -17 7 -20 50 -20 36 0 50 4 50 14 0 15 -30 26 -72 26 -21 0 -28 -5 -28 -20z"></path><path id="pJW8o5hdK" d="M8308 6563 c-10 -2 -18 -11 -18 -19 0 -10 13 -14 45 -14 38 0 45 3 45 20 0 15 -6 20 -27 19 -16 -1 -36 -3 -45 -6z"></path><path id="pPrUbxDBx" d="M7790 6540 c0 -18 7 -20 70 -20 53 0 70 3 70 14 0 17 -31 26 -92 26 -41 0 -48 -3 -48 -20z"></path><path id="pKTV4FyXM" d="M8118 6553 c-10 -2 -18 -11 -18 -19 0 -11 15 -14 65 -14 58 0 65 2 65 20 0 17 -6 20 -47 19 -27 -1 -56 -3 -65 -6z"></path><path id="paBJfWH9f" d="M8225 6474 c-98 -30 -288 -70 -372 -80 -52 -5 -63 -10 -63 -25 0 -11 2 -19 5 -19 3 0 49 7 103 15 213 32 472 98 472 121 0 20 -51 16 -145 -12z"></path><path id="p17IsgfXwQ" d="M2831 6457 c-41 -18 -76 -38 -79 -45 -6 -18 63 -15 82 3 8 8 23 15 33 15 29 0 45 15 41 38 -3 20 -5 20 -77 -11z"></path><path id="pDC7Cuo5Q" d="M8831 6441 c-122 -50 -148 -71 -87 -71 20 0 36 5 36 10 0 6 11 10 25 10 14 0 25 5 25 10 0 6 11 10 24 10 13 0 27 6 29 13 3 6 6 1 7 -13 1 -24 3 -23 40 20 66 75 58 76 -99 11z"></path><path id="p1ERLedeeE" d="M6910 6376 c0 -7 10 -16 23 -20 41 -11 57 -7 57 14 0 17 -7 20 -40 20 -27 0 -40 -4 -40 -14z"></path><path id="p11y3orLOF" d="M8651 6371 c-64 -23 -68 -45 -7 -39 54 6 59 9 54 36 -3 19 -4 19 -47 3z"></path><path id="p14biPjcG3" d="M7010 6366 c0 -14 29 -26 68 -26 15 0 22 6 22 20 0 17 -7 20 -45 20 -32 0 -45 -4 -45 -14z"></path><path id="p15w3rvX7p" d="M7690 6360 c0 -21 16 -25 58 -14 39 11 27 34 -18 34 -33 0 -40 -3 -40 -20z"></path><path id="pBmI6tBYY" d="M2545 6309 c-157 -95 -335 -236 -335 -264 0 -16 53 -4 79 18 9 8 21 13 27 10 6 -2 63 12 125 30 141 43 310 80 454 102 61 8 125 18 143 21 39 6 44 34 6 34 -90 0 -430 -65 -607 -116 -135 -39 -127 -37 -127 -24 0 6 14 10 30 10 20 0 30 5 30 15 0 8 9 15 20 15 11 0 20 7 20 15 0 8 9 15 20 15 13 0 20 7 20 20 0 16 7 20 30 20 17 0 30 5 30 10 0 6 7 10 15 10 8 0 15 7 15 15 0 9 9 15 25 15 16 0 25 6 25 15 0 8 9 15 19 15 35 0 51 12 51 36 0 13 -4 24 -8 24 -4 0 -53 -27 -107 -61z"></path><path id="p1Hu3v7jCC" d="M7160 6356 c0 -15 30 -26 73 -26 20 0 27 5 27 20 0 17 -7 20 -50 20 -36 0 -50 -4 -50 -14z"></path><path id="pRhpgo2Cp" d="M7540 6350 c0 -15 7 -20 28 -20 42 0 72 11 72 26 0 10 -14 14 -50 14 -43 0 -50 -3 -50 -20z"></path><path id="p16YAyvqjK" d="M6000 6300 c0 -16 7 -20 35 -20 40 0 49 24 13 34 -38 10 -48 7 -48 -14z"></path><path id="pIKliSCXC" d="M8433 6302 c-30 -8 -53 -21 -53 -28 0 -17 36 -18 96 -3 32 8 44 16 44 30 0 22 -15 23 -87 1z"></path><path id="pT3lA9eMp" d="M6090 6281 c0 -16 24 -23 188 -55 187 -36 437 -76 480 -76 32 0 28 27 -5 34 -16 3 -80 13 -143 21 -63 9 -204 34 -314 56 -109 21 -200 39 -202 39 -2 0 -4 -8 -4 -19z"></path><path id="pFY9f1IGA" d="M3230 6260 c0 -15 7 -20 28 -20 42 0 72 11 72 26 0 10 -14 14 -50 14 -43 0 -50 -3 -50 -20z"></path><path id="pXiYqlhvh" d="M3670 6266 c0 -15 30 -26 73 -26 20 0 27 5 27 20 0 17 -7 20 -50 20 -36 0 -50 -4 -50 -14z"></path><path id="pb64Cp4Xm" d="M3090 6250 c0 -21 16 -25 58 -14 39 11 27 34 -18 34 -33 0 -40 -3 -40 -20z"></path><path id="pw5UuozHd" d="M3840 6256 c0 -7 10 -16 23 -20 41 -11 57 -7 57 14 0 17 -7 20 -40 20 -27 0 -40 -4 -40 -14z"></path><path id="pLoYecfGs" d="M8288 6263 c-33 -8 -20 -33 17 -33 28 0 35 4 35 20 0 20 -14 23 -52 13z"></path><path id="pwuIckyri" d="M8697 6263 c-4 -3 -7 -15 -7 -25 0 -13 -7 -18 -25 -18 -18 0 -25 -5 -25 -20 0 -15 -7 -20 -25 -20 -20 0 -25 -5 -25 -25 0 -22 -4 -25 -35 -25 -19 0 -35 -4 -35 -10 0 -5 -7 -10 -15 -10 -8 0 -15 -4 -15 -10 0 -5 -7 -10 -15 -10 -8 0 -15 -7 -15 -15 0 -9 -9 -15 -25 -15 -20 0 -25 -5 -25 -25 0 -14 4 -25 9 -25 23 0 351 238 351 256 0 7 -66 5 -73 -3z"></path><path id="pz0vc3ydw" d="M3950 6246 c0 -7 10 -16 23 -20 41 -11 57 -7 57 14 0 17 -7 20 -40 20 -27 0 -40 -4 -40 -14z"></path><path id="p1ExYsgTgN" d="M4040 6236 c0 -7 10 -16 23 -20 41 -11 57 -7 57 14 0 17 -7 20 -40 20 -27 0 -40 -4 -40 -14z"></path><path id="pAnXXVZhl" d="M8198 6243 c-33 -8 -20 -33 17 -33 28 0 35 4 35 20 0 20 -14 23 -52 13z"></path><path id="plptKKBYH" d="M4130 6225 c0 -8 13 -16 33 -20 17 -2 93 -14 167 -26 187 -29 484 -91 743 -155 120 -30 222 -54 227 -54 6 0 10 8 10 18 0 15 -36 27 -232 75 -271 66 -576 128 -768 157 -162 24 -180 24 -180 5z"></path><path id="p121MYye6m" d="M7980 6203 c-80 -13 -160 -26 -177 -29 -22 -3 -33 -11 -33 -21 0 -19 54 -15 258 19 112 19 132 25 132 40 0 22 3 22 -180 -9z"></path><path id="pXZDrEJgC" d="M6790 6160 c0 -17 7 -20 45 -20 49 0 64 23 23 34 -45 12 -68 7 -68 -14z"></path><path id="pRAkMaWCX" d="M6900 6150 c0 -17 7 -20 40 -20 45 0 57 23 18 34 -42 11 -58 7 -58 -14z"></path><path id="pXXftdKc7" d="M7688 6163 c-36 -9 -20 -33 22 -33 33 0 40 3 40 20 0 20 -20 24 -62 13z"></path><path id="pvliNqye3" d="M7040 6140 c0 -17 7 -20 50 -20 36 0 50 4 50 14 0 15 -30 26 -72 26 -21 0 -28 -5 -28 -20z"></path><path id="p19QRINcza" d="M7518 6153 c-10 -2 -18 -11 -18 -19 0 -10 14 -14 55 -14 48 0 55 2 55 20 0 17 -6 20 -37 19 -21 -1 -46 -3 -55 -6z"></path><path id="pekwWWvvr" d="M8273 5982 c-29 -14 -53 -32 -53 -39 0 -8 -13 -13 -35 -13 -19 0 -35 -4 -35 -10 0 -5 -11 -10 -25 -10 -14 0 -25 -4 -25 -9 0 -5 -18 -11 -40 -15 -34 -5 -40 -10 -40 -31 0 -24 1 -24 38 -11 138 49 332 141 332 157 0 18 -67 7 -117 -19z"></path><path id="p133DzMIZG" d="M5390 5956 c0 -9 73 -32 245 -75 135 -33 249 -61 255 -61 5 0 10 8 10 18 0 15 -38 27 -232 75 -245 60 -278 66 -278 43z"></path><path id="p1DD9gFXUN" d="M3760 5941 c0 -5 28 -44 63 -88 172 -214 318 -423 453 -650 43 -73 82 -133 86 -133 14 0 9 68 -6 82 -7 8 -17 24 -20 36 -4 12 -11 22 -16 22 -4 0 -11 11 -14 25 -4 14 -13 25 -21 25 -9 0 -15 10 -15 25 0 14 -4 25 -10 25 -5 0 -10 7 -10 15 0 8 -7 15 -15 15 -9 0 -15 9 -15 25 0 14 -4 25 -10 25 -5 0 -10 7 -10 15 0 8 -9 15 -20 15 -16 0 -20 7 -20 30 0 17 -4 30 -10 30 -5 0 -10 7 -10 15 0 8 -4 15 -10 15 -5 0 -10 7 -10 15 0 8 -4 15 -10 15 -5 0 -10 7 -10 15 0 8 -4 15 -10 15 -5 0 -10 7 -10 15 0 8 -7 15 -15 15 -8 0 -15 9 -15 20 0 11 -7 20 -15 20 -8 0 -15 9 -15 20 0 11 -7 20 -15 20 -8 0 -15 9 -15 20 0 11 -7 20 -15 20 -8 0 -15 9 -15 20 0 13 -7 20 -20 20 -15 0 -20 7 -20 25 0 18 -5 25 -20 25 -11 0 -20 7 -20 15 0 11 11 15 36 15 53 0 38 21 -32 47 -64 24 -94 28 -94 14z"></path><path id="p110ChQJ98" d="M3930 5876 c0 -18 9 -25 53 -39 124 -39 145 -8 24 35 l-77 27 0 -23z"></path><path id="piO3BLSwQ" d="M4100 5817 c0 -20 22 -30 218 -95 120 -39 229 -72 244 -72 14 0 28 -4 30 -9 3 -9 260 -87 478 -145 304 -81 664 -153 955 -191 148 -19 165 -19 165 0 0 16 -1 16 -220 45 -431 57 -1041 211 -1647 414 -213 71 -223 74 -223 53z"></path><path id="p12g2jW8M1" d="M5920 5826 c0 -9 19 -18 50 -25 67 -14 70 -14 70 8 0 14 -10 20 -37 25 -60 9 -83 7 -83 -8z"></path><path id="pyhAPeQNP" d="M7900 5831 c0 -4 -19 -11 -42 -14 -24 -3 -92 -17 -153 -31 -60 -14 -149 -31 -197 -38 -74 -10 -88 -14 -88 -30 0 -10 5 -18 11 -18 38 0 285 47 398 76 73 19 135 34 137 34 2 0 4 7 4 15 0 10 -11 15 -35 15 -19 0 -35 -4 -35 -9z"></path><path id="p18acxpV2p" d="M6170 5776 c0 -13 28 -26 58 -26 6 0 12 9 12 20 0 16 -7 20 -35 20 -23 0 -35 -5 -35 -14z"></path><path id="pI0oIkzHu" d="M6280 5756 c0 -14 14 -19 98 -31 37 -6 42 -5 42 13 0 15 -9 21 -46 26 -72 9 -94 8 -94 -8z"></path><path id="pdaS4FSol" d="M6430 5736 c0 -13 28 -26 58 -26 6 0 12 9 12 20 0 16 -7 20 -35 20 -23 0 -35 -5 -35 -14z"></path><path id="p3TMAa6is" d="M6510 5726 c0 -13 28 -26 58 -26 6 0 12 9 12 20 0 16 -7 20 -35 20 -23 0 -35 -5 -35 -14z"></path><path id="pHL5cOgBx" d="M6610 5716 c0 -13 28 -26 58 -26 6 0 12 9 12 20 0 16 -7 20 -35 20 -23 0 -35 -5 -35 -14z"></path><path id="pngspx5cJ" d="M7330 5710 c0 -21 16 -25 58 -14 39 11 27 34 -18 34 -33 0 -40 -3 -40 -20z"></path><path id="p1FXG7zk5F" d="M6730 5706 c0 -14 29 -26 68 -26 15 0 22 6 22 20 0 17 -7 20 -45 20 -32 0 -45 -4 -45 -14z"></path><path id="pS8NyzAAB" d="M7200 5700 c0 -21 23 -26 68 -14 41 11 26 34 -23 34 -38 0 -45 -3 -45 -20z"></path><path id="pel91oceP" d="M8091 5565 c-174 -76 -545 -179 -771 -214 -74 -12 -150 -24 -167 -26 -21 -4 -33 -12 -33 -22 0 -13 9 -15 63 -9 224 24 542 97 776 178 80 28 158 50 174 49 28 -1 33 11 21 43 -7 19 -19 20 -63 1z"></path><path id="pjfQETdDA" d="M8130 5455 c0 -38 3 -45 20 -45 21 0 26 23 14 68 -11 41 -34 26 -34 -23z"></path><path id="pGT5MZmWT" d="M8140 5305 c0 -48 2 -55 20 -55 16 0 20 7 20 33 0 47 -10 77 -26 77 -10 0 -14 -15 -14 -55z"></path><path id="pepQPTUnl" d="M6210 5300 c0 -17 7 -20 45 -20 49 0 64 23 23 34 -45 12 -68 7 -68 -14z"></path><path id="puGSm17Va" d="M7038 5313 c-36 -9 -20 -33 22 -33 33 0 40 3 40 20 0 20 -20 24 -62 13z"></path><path id="p18RKMs65g" d="M6350 5290 c0 -17 7 -20 50 -20 36 0 50 4 50 14 0 15 -30 26 -72 26 -21 0 -28 -5 -28 -20z"></path><path id="ph1sJbEGZ" d="M6898 5303 c-10 -2 -18 -11 -18 -19 0 -10 13 -14 50 -14 43 0 50 3 50 20 0 16 -6 20 -32 19 -18 -1 -41 -3 -50 -6z"></path><path id="p1D9tNnhXC" d="M4370 5044 c0 -13 54 -104 62 -104 12 0 10 55 -4 85 -7 16 -19 25 -35 25 -12 0 -23 -3 -23 -6z"></path><path id="pSsp7nsqA" d="M8140 4970 c0 -44 4 -60 14 -60 16 0 26 30 26 83 0 30 -4 37 -20 37 -18 0 -20 -7 -20 -60z"></path><path id="pMgSW6ski" d="M8130 4805 c0 -49 23 -64 34 -22 12 44 7 67 -14 67 -17 0 -20 -7 -20 -45z"></path><path id="pRYwydlte" d="M4524 4738 c139 -314 239 -589 306 -835 22 -80 38 -123 47 -123 8 0 13 12 13 35 0 19 -4 35 -9 35 -4 0 -11 24 -14 52 -4 29 -11 54 -17 56 -5 2 -10 19 -10 38 0 19 -4 34 -10 34 -5 0 -10 12 -10 27 0 30 -78 275 -90 283 -4 3 -10 22 -14 43 -4 20 -11 37 -16 37 -6 0 -10 11 -10 25 0 14 -4 25 -10 25 -5 0 -10 11 -10 25 0 14 -4 25 -10 25 -5 0 -10 11 -10 24 0 14 -7 31 -15 40 -8 8 -15 21 -15 29 0 26 -12 47 -26 47 -9 0 -14 11 -14 30 0 46 -20 80 -47 80 -23 0 -23 -1 -9 -32z"></path><path id="p163KERCvN" d="M8120 4705 c0 -40 24 -49 34 -12 10 37 7 47 -14 47 -16 0 -20 -7 -20 -35z"></path><path id="pBwUAOI1a" d="M8101 4565 c-7 -52 -28 -164 -47 -248 -18 -83 -34 -162 -34 -174 0 -12 -3 -23 -8 -25 -11 -4 -42 -110 -42 -141 0 -15 -4 -27 -8 -27 -11 0 -42 -99 -42 -134 0 -137 137 291 194 608 38 211 40 236 18 236 -16 0 -20 -13 -31 -95z"></path><path id="pZXtYZFNa" d="M7884 3743 c-4 -21 -10 -40 -14 -43 -14 -9 -60 -133 -60 -162 0 -17 -5 -28 -13 -28 -18 0 -37 -43 -37 -80 0 -18 -5 -30 -13 -30 -18 0 -87 -144 -87 -180 0 -22 -5 -30 -18 -30 -20 0 -42 -38 -42 -70 0 -11 -6 -20 -14 -20 -15 0 -26 -21 -26 -51 0 -10 -7 -19 -15 -19 -9 0 -15 -9 -15 -25 0 -16 -6 -25 -15 -25 -9 0 -15 -9 -15 -25 0 -16 -6 -25 -15 -25 -8 0 -15 -7 -15 -15 0 -8 -4 -15 -10 -15 -5 0 -10 -7 -10 -15 0 -8 -4 -15 -10 -15 -5 0 -10 -13 -10 -30 0 -23 -4 -30 -20 -30 -11 0 -20 -7 -20 -15 0 -8 -4 -15 -10 -15 -5 0 -10 -7 -10 -15 0 -8 -4 -15 -10 -15 -5 0 -10 -7 -10 -15 0 -8 -4 -15 -10 -15 -5 0 -10 -9 -10 -20 0 -11 -7 -20 -15 -20 -8 0 -15 -7 -15 -15 0 -8 -4 -15 -10 -15 -5 0 -10 -7 -10 -15 0 -8 -4 -15 -10 -15 -5 0 -10 -8 -10 -19 0 -10 -9 -21 -20 -24 -12 -3 -20 -14 -20 -26 0 -12 -6 -21 -15 -21 -8 0 -15 -9 -15 -20 0 -11 -7 -20 -15 -20 -9 0 -15 -9 -15 -25 0 -18 -5 -25 -20 -25 -15 0 -20 -7 -20 -24 0 -18 -6 -25 -22 -28 -17 -2 -24 -11 -26 -30 -2 -20 -9 -28 -23 -28 -14 0 -19 -7 -19 -29 0 -25 -4 -30 -27 -33 -23 -2 -29 -8 -31 -35 -3 -27 -8 -33 -26 -33 -35 0 -68 -42 -64 -81 l3 -34 79 90 c426 486 764 1034 954 1548 l22 57 -25 0 c-20 0 -25 -6 -31 -37z"></path><path id="pK7Ly9YS2" d="M4873 3733 c36 -163 69 -340 82 -438 24 -184 25 -185 40 -185 10 0 15 10 15 30 0 50 -39 308 -70 461 -17 80 -30 148 -30 152 0 4 -10 7 -21 7 -18 0 -21 -4 -16 -27z"></path><path id="p15Dq2MfPa" d="M4980 3083 c0 -34 12 -63 26 -63 10 0 14 13 14 40 0 33 -3 40 -20 40 -12 0 -20 -7 -20 -17z"></path><path id="p8kxDdVAY" d="M4990 2963 c0 -43 11 -73 26 -73 10 0 14 14 14 50 0 43 -3 50 -20 50 -15 0 -20 -7 -20 -27z"></path><path id="ppVJPT3cY" d="M5000 2605 c0 -178 1 -185 20 -185 19 0 20 7 20 185 0 178 -1 185 -20 185 -19 0 -20 -7 -20 -185z"></path><path id="pnuF0Y3YL" d="M4996 2308 c-12 -45 -7 -68 14 -68 17 0 20 7 20 45 0 49 -23 64 -34 23z"></path><path id="pz7jBWcMl" d="M4986 2188 c-12 -45 -7 -68 14 -68 17 0 20 7 20 45 0 49 -23 64 -34 23z"></path><path id="pl1rnJ68Z" d="M4976 2078 c-3 -18 -12 -87 -21 -153 -13 -97 -51 -302 -82 -442 -4 -18 -1 -23 16 -23 11 0 21 3 21 6 0 4 13 70 29 148 30 145 71 412 71 466 0 42 -28 40 -34 -2z"></path><path id="psYJVVCdT" d="M6757 2022 c-38 -38 -47 -55 -47 -82 l0 -34 56 54 c30 30 65 67 75 83 l20 27 -28 0 c-21 0 -41 -13 -76 -48z"></path><path id="p19YjtDP31" d="M6566 1831 c-29 -30 -37 -45 -34 -67 3 -29 3 -29 73 38 l70 67 -35 1 c-29 0 -44 -8 -74 -39z"></path><path id="pTxLOaq4h" d="M6424 1696 c-3 -8 -4 -24 -2 -36 3 -20 5 -20 43 14 l40 35 -38 1 c-24 0 -40 -5 -43 -14z"></path><path id="p1Dk6pIROA" d="M6337 1623 c-4 -3 -7 -17 -7 -29 0 -18 -6 -23 -32 -26 -25 -2 -34 -8 -36 -25 -2 -15 -11 -23 -30 -25 -19 -2 -28 -10 -30 -25 -3 -17 -10 -23 -28 -23 -17 0 -24 -5 -24 -20 0 -15 -7 -20 -25 -20 -16 0 -25 -6 -25 -15 0 -9 -9 -15 -21 -15 -12 0 -23 -8 -26 -20 -3 -11 -14 -20 -24 -20 -11 0 -19 -7 -19 -15 0 -8 -9 -15 -20 -15 -11 0 -23 -7 -26 -15 -4 -8 -12 -15 -20 -15 -8 0 -14 -7 -14 -15 0 -8 -9 -15 -20 -15 -11 0 -20 -7 -20 -15 0 -8 -9 -15 -20 -15 -11 0 -20 -4 -20 -10 0 -5 -7 -10 -15 -10 -8 0 -15 -7 -15 -15 0 -8 -9 -15 -20 -15 -11 0 -20 -4 -20 -10 0 -5 -7 -10 -15 -10 -8 0 -15 -4 -15 -10 0 -5 -7 -10 -15 -10 -8 0 -15 -7 -15 -15 0 -8 -9 -15 -20 -15 -11 0 -20 -4 -20 -10 0 -5 -7 -10 -15 -10 -8 0 -15 -4 -15 -10 0 -5 -7 -10 -15 -10 -8 0 -15 -4 -15 -10 0 -5 -7 -10 -15 -10 -8 0 -15 -4 -15 -10 0 -5 -7 -10 -15 -10 -8 0 -15 -4 -15 -10 0 -5 -7 -10 -15 -10 -8 0 -15 -4 -15 -10 0 -5 -7 -10 -15 -10 -8 0 -15 -7 -15 -15 0 -9 -9 -15 -25 -15 -14 0 -25 -4 -25 -10 0 -5 -7 -10 -15 -10 -8 0 -15 -7 -15 -15 0 -9 -9 -15 -25 -15 -14 0 -25 -4 -25 -9 0 -5 -11 -12 -25 -15 -14 -4 -25 -13 -25 -21 0 -9 -10 -15 -25 -15 -16 0 -25 -6 -25 -15 0 -9 -9 -15 -25 -15 -18 0 -25 -5 -25 -20 0 -15 -7 -20 -29 -20 -39 0 -61 -9 -61 -26 0 -8 -9 -14 -20 -14 -39 0 -90 -32 -90 -57 0 -13 4 -23 8 -23 14 0 356 199 499 290 256 163 658 463 843 629 l45 40 -36 1 c-20 0 -39 -3 -42 -7z"></path><path id="pfvZNF4FV" d="M4836 1343 c-55 -215 -192 -598 -295 -826 -17 -38 -28 -73 -25 -79 3 -5 18 -7 33 -3 43 11 451 214 451 225 0 5 -13 10 -30 10 -36 0 -320 -139 -320 -157 0 -8 -13 -13 -35 -13 -32 0 -35 2 -25 19 5 11 10 29 10 40 0 12 4 21 8 21 11 0 72 154 72 181 0 10 5 19 10 19 6 0 10 11 10 24 0 13 4 26 9 28 6 2 16 26 23 53 7 28 15 52 19 55 11 9 59 165 59 193 0 15 4 27 9 27 10 0 71 225 71 263 0 16 -6 27 -13 27 -9 0 -24 -38 -41 -107z"></path></g></g></svg>