<?xml version="1.0" encoding="UTF-8"?>
<svg id="Layer_1" xmlns="http://www.w3.org/2000/svg" version="1.1" viewBox="0 0 1536 1024">
  <!-- Generator: Adobe Illustrator 29.3.1, SVG Export Plug-In . SVG Version: 2.1.0 Build 151)  -->
  <defs>
    <style>
      .st0 {
        fill: #bdbfbf;
      }

      .st1 {
        fill: #181818;
      }

      .st2 {
        fill: #8f9090;
      }

      .st3 {
        fill: #434344;
      }

      .st4 {
        fill: #a9aaa9;
      }

      .st5 {
        fill: #434343;
      }

      .st6 {
        fill: #bbbdbd;
      }

      .st7 {
        fill: #41b130;
      }

      .st8 {
        fill: #141414;
      }

      .st9 {
        fill: #8e8f8f;
      }

      .st10 {
        fill: #141413;
      }

      .st11 {
        fill: #413f40;
      }

      .st12 {
        fill: #f6f6f6;
      }

      .st13 {
        fill: #121212;
      }

      .st14 {
        fill: #c2c2c2;
      }

      .st15 {
        fill: #737371;
      }

      .st16 {
        fill: #868786;
      }

      .st17 {
        fill: #10100f;
      }

      .st18 {
        fill: #9b9c9c;
      }

      .st19 {
        fill: #7e7e7e;
      }

      .st20 {
        fill: #37aa28;
      }

      .st21 {
        fill: #b8b9b9;
      }

      .st22 {
        fill: #8c8d8d;
      }

      .st23 {
        fill: #131313;
      }

      .st24 {
        fill: #3daa2c;
      }

      .st25 {
        fill: #959696;
      }

      .st26 {
        fill: #787979;
      }

      .st27 {
        fill: #a7e09f;
      }

      .st28 {
        fill: #696a6a;
      }

      .st29 {
        fill: #b8baba;
      }

      .st30 {
        fill: #171717;
      }

      .st31 {
        fill: #939394;
      }

      .st32 {
        fill: #b9bbbb;
      }

      .st33 {
        fill: #43b132;
      }

      .st34 {
        fill: #8d8e8e;
      }

      .st35 {
        fill: #e4e4e5;
      }

      .st36 {
        fill: #c4c5c6;
      }

      .st37 {
        fill: #797a79;
      }

      .st38 {
        fill: #75c772;
      }

      .st39 {
        fill: #36a927;
      }

      .st40 {
        fill: #514f51;
      }

      .st41 {
        fill: #3da92c;
      }

      .st42 {
        fill: #7a787a;
      }

      .st43 {
        fill: #929393;
      }

      .st44 {
        fill: #8a8b8b;
      }

      .st45 {
        fill: #8b8a8b;
      }

      .st46 {
        fill: #141314;
      }

      .st47 {
        fill: #908f91;
      }

      .st48 {
        fill: #1a1a1a;
      }

      .st49 {
        fill: #74c672;
      }

      .st50 {
        fill: #dfdfdf;
      }

      .st51 {
        fill: #939493;
      }

      .st52 {
        fill: #c7c7c8;
      }

      .st53 {
        fill: #191919;
      }

      .st54 {
        fill: #a6dea5;
      }

      .st55 {
        fill: #c8edc4;
      }

      .st56 {
        fill: #8e8d8f;
      }

      .st57 {
        fill: #a7a8a8;
      }

      .st58 {
        fill: #3caa2b;
      }

      .st59 {
        fill: #3caa2c;
      }

      .st60 {
        fill: #151515;
      }

      .st61 {
        fill: #131312;
      }

      .st62 {
        fill: #3fac2d;
      }

      .st63 {
        fill: #c6ecc2;
      }

      .st64 {
        fill: #8dd48a;
      }

      .st65 {
        fill: #a8e1a0;
      }

      .st66 {
        fill: #161616;
      }

      .st67 {
        fill: #b9bab9;
      }
    </style>
  </defs>
  <path class="st41" d="M684.82,103.28c32.06,18.58,70.58,25.6,107.16,19.7,18.91-3.26,37.16-10.02,53.83-19.49-16.77,55.61-34.92,110.78-52.24,166.22-9.35,27.42-16.64,55.59-28.01,82.29-7.21-18.74-13.26-37.89-19.47-56.97-20.06-64.03-41.97-127.49-61.27-191.75Z"/>
  <g>
    <path class="st8" d="M545.57,203.01c55.92-8.14,103.88-47.66,128.46-97.71,25.16,82.83,53.33,164.74,77.39,247.91-55.56-39.9-110.42-80.76-165.96-120.69-13.3-9.83-26.66-19.59-39.89-29.51Z"/>
    <path class="st8" d="M856.89,105.15c13.33,26.12,32.15,49.67,55.8,67.14,21.62,15.62,46.88,26.38,73.21,30.74-69.01,49.56-136.63,101.02-205.74,150.43,24.71-83.03,51.6-165.41,76.73-248.31Z"/>
    <path class="st8" d="M488.41,374.13c6.49-.92,13.06-.27,19.59-.48,78.95.19,157.91-.11,236.85.55-65.77,50.25-131.52,100.57-197.93,149.99.11-1.71.22-3.41.35-5.11.65-7.04,1.05-14.15.06-21.19-1.87-46.99-23.89-92.5-58.92-123.76Z"/>
    <path class="st8" d="M786.95,373.78c77.34.44,154.7-.45,232.06-.17,7.89.26,15.84-.59,23.69.48-42.04,36.78-63.69,94.61-58.23,149.96-65.9-50-131.64-100.24-197.52-150.27Z"/>
    <path class="st8" d="M766.17,387.99c27.75,78.92,53.03,158.68,79.99,237.87-21.25-11.61-45-18.72-69.2-20.18-7.34-.85-14.75-.64-22.1.02-24.53,1.68-48.57,8.79-70.24,20.39,28.3-78.96,54.39-158.73,81.55-238.1Z"/>
    <path class="st8" d="M516.8,700.88c5.44-7.7,14.9-11.61,24.1-12.15,33.29-.09,66.59-.1,99.89,0-.01,8.46-.02,16.93-.08,25.39-30.29.21-60.61-.47-90.87.36-12.22.61-11.14,21.7,1.25,20.87,20.64.75,41.32-.08,61.97.4,7.55.44,15.27,2.25,21.49,6.76,7.29,4.99,11.16,13.77,11.74,22.4.19,5.37.15,10.74-.05,16.11-.78,15.11-14.1,27.28-29.15,27.15-34.95.14-69.91-.25-104.85.12.09-8.45-.04-16.91.08-25.36,31.56-.27,63.16.38,94.7-.3,7.86-.14,10.25-9.4,7.96-15.61-1.36-4.65-6.7-5.72-10.92-5.77-18.35-.17-36.7-.03-55.05-.13-9.52-.39-19.86-1.41-27.49-7.71-6.78-5.42-10.25-14.01-10.68-22.52-.68-10.2-.24-21.4,5.96-30.01Z"/>
    <path class="st8" d="M692.12,808.29c21.98-39.88,43.77-79.87,65.77-119.74,11.26.21,22.52.18,33.78.04,22.12,39.76,43.98,79.67,65.58,119.72-11.53-.24-23.07-.28-34.59,0-3.77-7.79-8.33-15.17-11.94-23.03-23.94-.29-47.9-.17-71.84-.03-3.76,7.8-8.14,15.28-12.08,22.99-11.56.09-23.12,0-34.68.04ZM751.76,760.33c14.74.8,29.53-.14,44.28.44.92.07,1.71-.24,2.38-.93l-.89.06c-7.45-14.37-15.34-28.5-22.68-42.91-7.8,14.39-15.38,28.89-23.09,43.34Z"/>
    <path class="st8" d="M711.13,855.61c2.76,0,5.53-.03,8.3-.08,3.91,10.52,7.43,21.18,11.56,31.62-2.51-.03-5.02-.03-7.52-.05-.78-2.31-1.6-4.61-2.36-6.92-3.9.05-7.79.03-11.68,0-.75,2.31-1.57,4.6-2.38,6.9-2.49,0-4.98.02-7.46.05,4.06-10.43,7.72-21.01,11.54-31.53ZM711,874.39c2.75.15,5.5.2,8.26.2-1.07-3.93-2.7-7.67-3.65-11.62-2.39,3.37-2.82,7.72-4.61,11.42Z"/>
    <path class="st8" d="M778.48,855.84c8.61-.26,17.24.06,25.86-.25-.02,1.98-.03,3.98-.02,5.98-3.14-.02-6.27.02-9.4.02-.09,8.51-.01,17.02-.01,25.53-2.37-.03-4.72-.02-7.07.01-.12-8.5,0-16.99-.09-25.48-3.06-.19-6.12-.26-9.17-.29-.05-1.85-.08-3.69-.1-5.52Z"/>
  </g>
  <path class="st59" d="M540.66,213.03c67.59,49.74,135.33,99.28,203.19,148.63-5.54,1.21-11.23.63-16.85.7-79.69.01-159.39-.03-239.08-.07,23.71-20.18,41.5-47.34,50.12-77.3,6.65-23.33,7.15-48.19,2.62-71.96Z"/>
  <path class="st58" d="M788.28,361.82c67.4-49.52,134.57-99.38,202.08-148.76-12.17,54.58,9.74,113.99,52.73,149.24-73.69-.68-147.39.32-221.09.09-11.24-.24-22.52.54-33.72-.57Z"/>
  <path class="st64" d="M743.85,361.66l.37-.07c.03.36.07,1.08.09,1.43-85.44-.7-170.95.28-256.39-.73,79.69.04,159.39.08,239.08.07,5.62-.07,11.31.51,16.85-.7Z"/>
  <path class="st54" d="M787.66,361.75l.62.07c11.2,1.11,22.48.33,33.72.57,73.7.23,147.4-.77,221.09-.09-84.84.55-169.75.35-254.59.6-.21-.29-.63-.86-.84-1.15Z"/>
  <path class="st57" d="M488.02,372.93c5.96.72,11.98.33,17.97.4,78.01.02,156.01.1,234.02.07,1.82.16,4.12-.73,5.54.84l-.7-.04c-78.94-.66-157.9-.36-236.85-.55-6.53.21-13.1-.44-19.59.48l-.45.07c.01-.32.04-.95.06-1.27Z"/>
  <path class="st18" d="M786.95,373.78c85.33-1.02,170.73.13,256.06-.84.03.31.08.91.1,1.21l-.41-.06c-7.85-1.07-15.8-.22-23.69-.48-77.36-.28-154.72.61-232.06.17Z"/>
  <g>
    <path class="st24" d="M700.87,421.8c17.57-13.14,34.82-26.74,52.8-39.34-5.92,22.84-14.03,45.02-20.94,67.58-19.64,57.63-38.88,115.39-58.57,173-22.86-47.23-69.53-82.42-121.77-89.46,49.68-37,99.41-73.95,148.48-111.78Z"/>
    <path class="st24" d="M778.15,382.39c39.11,27.42,76.36,57.35,114.73,85.77,28.53,22.11,57.43,43.74,86.31,65.39-52.58,6.85-99.08,42.46-122.25,89.72-26.05-80.36-53.45-160.29-78.79-240.88Z"/>
  </g>
  <path class="st51" d="M547.33,497.89c.99,7.04.59,14.15-.06,21.19-.15-7.06.43-14.12.06-21.19Z"/>
  <path class="st25" d="M754.86,605.7c7.35-.66,14.76-.87,22.1-.02-7.37-.15-14.73-.08-22.1.02Z"/>
  <path class="st31" d="M199.46,688.55c10.58-.31,21.2-.4,31.78.07h-.39c-10.46.11-20.93.17-31.39-.07Z"/>
  <path class="st9" d="M304.95,688.57c10.35-.35,20.73-.37,31.08-.04-10.36.23-20.72.24-31.08.04Z"/>
  <g>
    <path class="st22" d="M409.67,688.53c10.53-.34,21.09-.3,31.62.01-10.54.25-21.09.21-31.62-.01Z"/>
    <path class="st22" d="M540.9,688.73c33.2-.95,66.5-.06,99.74-.45l.15.45c-33.3-.1-66.6-.09-99.89,0Z"/>
  </g>
  <path class="st2" d="M757.89,688.55c11.36-.36,22.74-.36,34.09.04h-.31c-11.26.14-22.52.17-33.78-.04Z"/>
  <path class="st34" d="M908.99,688.55c32.65-.22,65.37-.63,98.01.21-32.41-.27-64.83.09-97.24-.18l-.77-.03Z"/>
  <path class="st43" d="M1103.62,688.59c10.42-.36,20.87-.42,31.29-.03l-.69.02c-10.2.16-20.4.2-30.6.01Z"/>
  <path class="st27" d="M1196.04,687.98c11.94.97,23.95-.14,35.91.55-11.85.67-23.75-.53-35.55.7l-.56.07.2-1.32Z"/>
  <path class="st65" d="M1302.25,688.56c11.72-.62,23.49.12,35.22-.35.24.27.7.82.94,1.09l-.82-.1c-11.74-1.12-23.57-.08-35.34-.64Z"/>
  <path class="st37" d="M199.36,808.28c-.01-39.91-.31-79.83.1-119.73.18,39.9.45,79.84-.1,119.73Z"/>
  <path class="st23" d="M199.46,688.55c10.46.24,20.93.18,31.39.08l-.1,1.09c-.64,15.56-.65,31.21-.01,46.77,24.67.44,49.35.06,74.02.19l.06-.39c.43-15.89-.03-31.82.13-47.72,10.36.2,20.72.19,31.08-.04-.04,39.92,0,79.84,0,119.76-10.35.06-20.7-.05-31.04-.04.01-15.09.12-30.18-.13-45.26l-.07-.59c-24.66.17-49.39-.6-74.03.39-.77,15.13-.54,30.35-.1,45.5-10.44,0-20.87-.04-31.31-.01.55-39.89.28-79.83.1-119.73Z"/>
  <path class="st67" d="M409.71,808.3c-.59-39.9-.5-79.87-.04-119.77.24,39.92.31,79.85.04,119.77Z"/>
  <path class="st61" d="M409.67,688.53c10.53.22,21.08.26,31.62.01-.32,39.9-.21,79.83-.02,119.74-10.52.01-21.04-.05-31.56.02.27-39.92.2-79.85-.04-119.77Z"/>
  <path class="st14" d="M441.29,688.54c.56,39.88.6,79.86-.02,119.74-.19-39.91-.3-79.84.02-119.74Z"/>
  <path class="st5" d="M908.99,688.55l.77.03c-.17,39.89-.22,79.79.03,119.69l-.78.04c.1-39.92.19-79.85-.02-119.76Z"/>
  <path class="st10" d="M909.76,688.58c32.41.27,64.83-.09,97.24.18,10.67.56,22,5,27.63,14.59,7.74,14.28,6.01,37.22-10.92,44.01,9.01,1.84,16.69,8.98,18.88,17.95,2.54,10.47,1.64,22.45-4.89,31.35-6.04,7.77-16.07,10.94-25.55,11.5-34.12.06-68.24-.18-102.36.11-.25-39.9-.2-79.8-.03-119.69ZM940.15,714.11c.01,7.42.01,14.85-.1,22.27,19.59.39,39.25.54,58.84-.1,12.05.05,12.82-20.72.99-21.67-19.83-1.27-39.83-.15-59.73-.5ZM940.14,760.16c0,7.58-.19,15.17.18,22.75,19.56-.01,39.12,0,58.68,0,3.97-.01,8.48-.5,11.26-3.69,4.94-6.34,2.09-18.49-7.12-18.64-20.95-.94-42.01-.18-63-.42Z"/>
  <path class="st4" d="M1103.62,808.28c-.38-39.88-.38-79.81,0-119.69.29,39.89.23,79.8,0,119.69Z"/>
  <path class="st13" d="M1103.62,688.59c10.2.19,20.4.15,30.6-.01.55,39.91-.46,79.86.5,119.75-10.37-.06-20.73-.05-31.1-.05.23-39.89.29-79.8,0-119.69Z"/>
  <path class="st11" d="M1134.22,688.58l.69-.02c-.1,39.92.27,79.85-.19,119.77-.96-39.89.05-79.84-.5-119.75Z"/>
  <path class="st62" d="M1196.4,689.23c11.8-1.23,23.7-.03,35.55-.7,11.63,13.05,23.73,25.7,35.31,38.8,11.98-12.61,23.31-25.86,34.99-38.77,11.77.56,23.6-.48,35.34.64-16.91,19.44-34.36,38.39-51.52,57.6,19.07,20.42,37.72,41.22,56.96,61.48-12.55-.06-25.11.13-37.66-.05-12.69-14.05-25.56-27.96-38.09-42.15-12.08,14.39-25.15,27.92-37.35,42.2-12.36.03-24.71.03-37.07-.03,18.7-20.43,37.07-41.17,55.94-61.45-17.73-18.95-35.05-38.28-52.4-57.57Z"/>
  <g>
    <path class="st40" d="M230.74,736.49c-.64-15.56-.63-31.21.01-46.77.25,15.58.15,31.18-.01,46.77Z"/>
    <path class="st40" d="M230.67,808.29c-.44-15.15-.67-30.37.1-45.5.21,15.16.22,30.34-.1,45.5Z"/>
  </g>
  <path class="st36" d="M549.84,714.48c30.26-.83,60.58-.15,90.87-.36l-.06.54c-30.27-.15-60.54.19-90.81-.18Z"/>
  <path class="st52" d="M940.15,714.11c19.9.35,39.9-.77,59.73.5-19.73.09-39.46-.04-59.2.07-.04,7.22-.16,14.45.11,21.68l-.74.02c.11-7.42.11-14.85.1-22.27Z"/>
  <path class="st19" d="M551.09,735.35c20.65.17,41.36-.64,61.97.4-20.65-.48-41.33.35-61.97-.4Z"/>
  <path class="st44" d="M230.74,736.49c24.69-.37,49.39.01,74.08-.2l-.06.39c-24.67-.13-49.35.25-74.02-.19Z"/>
  <path class="st26" d="M940.05,736.38l.74-.02c19.37-.14,38.74-.03,58.1-.08-19.59.64-39.25.49-58.84.1Z"/>
  <path class="st28" d="M797.53,759.9l.89-.06c-.67.69-1.46,1-2.38.93-14.75-.58-29.54.36-44.28-.44,15.25-.31,30.53.3,45.77-.43Z"/>
  <path class="st21" d="M940.14,760.16c20.99.24,42.05-.52,63,.42-20.83.1-41.67-.01-62.51.07-.13,7.42.3,14.85-.31,22.26-.37-7.58-.18-15.17-.18-22.75Z"/>
  <path class="st3" d="M230.77,762.79c24.64-.99,49.37-.22,74.03-.39l.07.59c-24.7-.28-49.4.13-74.1-.2Z"/>
  <path class="st42" d="M646.29,764.91c1.05,5.31.72,10.78-.05,16.11.2-5.37.24-10.74.05-16.11Z"/>
  <path class="st0" d="M738.88,785.26c23.94-.14,47.9-.26,71.84.03-23.92.55-47.93.61-71.84-.03Z"/>
  <path class="st29" d="M512.24,808.29c34.94-.37,69.9.02,104.85-.12-34.89.84-69.94.6-104.85.12Z"/>
  <path class="st32" d="M822.66,808.32c11.52-.29,23.06-.25,34.59,0-11.51.53-23.09.51-34.59,0Z"/>
  <path class="st6" d="M909.01,808.31l.78-.04c34.12-.29,68.24-.05,102.36-.11-34.32.87-68.8.59-103.14.15Z"/>
  <g>
    <path class="st53" d="M393.43,859.45c7.2-7.92,23.04-4.71,24.7,6.57-2.34.07-4.67.2-7,.4-1.08-4-5.53-6.59-9.46-4.85-6.04,2.72-5.9,11.14-3.77,16.4,2.89,5.74,12.08,4.49,13.37-1.81,2.32.29,4.66.45,7.01.58-1.86,11.53-18.05,14.48-25.29,6.29-5.47-6.52-5.14-17.22.44-23.58Z"/>
    <path class="st53" d="M825.3,855.43c4.55-.92,9.64-.03,13.18,3.12,6.87,5.94,7.19,17.53,1.42,24.33-5.57,6.18-16.42,6.43-22.19.39-7.72-8.4-4.82-25.8,7.59-27.84ZM826.3,861.41c-8.85,3.04-7.58,20.48,2.63,20.27,11.55-.85,9.61-23.78-2.63-20.27Z"/>
    <path class="st53" d="M1138.36,855.51c6.65-1.58,14.47,1.28,17.26,7.82,2.53,6.34,2.22,14.46-2.5,19.75-6.23,6.93-19.22,5.94-23.87-2.32-5.06-8.73-1.82-23.07,9.11-25.25ZM1140.17,861.34c-9.1,2.84-7.83,21.38,2.84,20.42,10.81-1.63,8.9-23.17-2.84-20.42Z"/>
  </g>
  <g>
    <path class="st48" d="M432.54,860.49c6.66-8.98,23.74-6.41,25.46,5.38-2.38.19-4.76.31-7.14.53-1.07-5.9-9.56-7.26-12.66-2.3-2.56,4.53-2.63,10.92.5,15.19,3.6,4.37,11.25,2.4,12.47-3.1,2.29.21,4.6.36,6.9.52-1.49,9.49-13.17,13.74-21.09,9.22-8.89-4.71-9.8-17.76-4.44-25.44Z"/>
    <path class="st48" d="M1054.06,859.99c6.75-8.17,22.99-5.92,24.96,5.36-2.33.1-4.64.12-6.95.25-1.92-5.73-10.62-6.03-13.06-.61-2.4,4.98-2.25,12.76,2.99,15.94,4.01,2.23,11.33-.03,10.31-5.55-2.15-.04-4.29-.05-6.42-.05-.01-1.73.02-3.44.06-5.14,4.28,0,8.57-.06,12.87-.05.04,3.62,0,7.24.02,10.87-5.37,7.61-17.62,9.13-24.29,2.44-5.68-6.25-5.75-16.94-.49-23.46Z"/>
    <path class="st48" d="M856.05,855.62c3-.03,6-.04,9.01-.06,2.99,7.1,5.62,14.35,8.39,21.54,2.74-7.18,5.6-14.3,8.32-21.49,3.02.01,6.04,0,9.07-.02-.13,10.51-.05,21.02-.09,31.53-2.19-.03-4.37-.02-6.54,0-.14-7.06.04-14.12-.15-21.16-2.88,6.98-5.41,14.13-8.16,21.17-1.67-.01-3.34-.02-5-.01-2.76-7-5.15-14.18-8.34-21,.4,7,.15,14.01.15,21.01-2.22-.01-4.44,0-6.64.03,0-10.52.07-21.03-.02-31.54Z"/>
  </g>
  <path class="st1" d="M480.4,855.53c5.7-1.32,12.26.53,15.69,5.47,4.23,6.34,4.01,15.44-.54,21.57-5.93,7.12-18.73,6.72-23.92-1.1-6-8.63-2.55-23.87,8.77-25.94ZM482.14,861.31c-9.32,2.87-7.73,21.11,2.86,20.5,10.78-1.83,8.92-23.17-2.86-20.5Z"/>
  <path class="st56" d="M589.5,855.62c8.76-.43,17.53-.15,26.3-.28.01,2.11.02,4.24.02,6.38-3.23-.01-6.46-.01-9.68.1l-.02-.52c3.11.03,6.23.08,9.35.11,0-1.9,0-3.79.02-5.66-8.67-.17-17.33.23-25.99-.13Z"/>
  <path class="st45" d="M778.18,855.38c8.72.15,17.44-.24,26.16.21-8.62.31-17.25-.01-25.86.25.02,1.83.05,3.67.1,5.52,3.05.03,6.11.1,9.17.29-3.19.2-6.39.23-9.58.13-.03-2.14-.02-4.28.01-6.4Z"/>
  <path class="st47" d="M938.26,855.37c8.75.16,17.5-.14,26.25.15-8.66.45-17.32.12-25.97.29,0,1.87.02,3.75.06,5.64,3.05-.04,6.11-.12,9.17-.03l.14.41c-3.23.05-6.46.04-9.69-.08-.01-2.14,0-4.26.04-6.38Z"/>
  <g>
    <path class="st66" d="M349.15,887.17c3.9-10.51,7.68-21.05,11.58-31.55,2.7-.03,5.41-.04,8.12-.04,3.68,10.57,7.46,21.12,11.54,31.55-2.5-.02-5-.02-7.49-.01-.76-2.31-1.58-4.59-2.37-6.88-3.85.02-7.7.02-11.55.03-.82,2.28-1.68,4.55-2.49,6.85-2.45,0-4.89.01-7.34.05ZM360.73,874.41c2.71.13,5.42.18,8.13.01-1.43-3.93-2.72-7.9-4.03-11.86-1.5,3.9-2.7,7.91-4.1,11.85Z"/>
    <path class="st66" d="M938.54,855.81c8.65-.17,17.31.16,25.97-.29-.01,2.01-.01,4.03,0,6.05-3.16,0-6.31.03-9.46.06.19,8.5.01,17,.11,25.5-2.35-.03-4.7-.03-7.04,0-.21-8.44.16-16.88-.21-25.3l-.14-.41c-3.06-.09-6.12-.01-9.17.03-.04-1.89-.06-3.77-.06-5.64Z"/>
  </g>
  <path class="st15" d="M511.54,878.17c-.56-7.5-.24-15.04-.18-22.55.52,7.5.18,15.03.18,22.55Z"/>
  <path class="st60" d="M511.36,855.62c2.29-.01,4.58-.02,6.88-.02.2,7.17-.35,14.41.4,21.55.84,6.15,11.2,5.9,12.15-.09.22-7.15.06-14.31.16-21.46,2.33,0,4.66,0,6.99,0-.36,7.7.5,15.45-.39,23.12-2.56,12.26-24.07,11.99-26.01-.55,0-7.52.34-15.05-.18-22.55Z"/>
  <g>
    <path class="st30" d="M551.19,855.59c2.18-.07,4.37-.08,6.57-.08,4.48,6.58,8.95,13.17,13.44,19.74-.15-6.56.12-13.12-.09-19.67,2.31.02,4.63.02,6.95.03-.2,10.5.11,21.02.05,31.53-2.19-.01-4.38-.01-6.55,0-4.47-6.81-8.9-13.66-13.66-20.27.43,6.74.02,13.49.2,20.24-2.28.01-4.56.01-6.84.03.02-10.52.02-21.04-.07-31.56Z"/>
    <path class="st30" d="M740.62,855.63c2.38-.01,4.76-.02,7.15,0,.16,7.15-.31,14.34.29,21.48.86,5.94,11.42,6.04,12.01-.12.5-7.11.06-14.27.18-21.4,2.36-.04,4.73-.04,7.1-.03-.08,7.46.19,14.95-.23,22.4-1.47,13.08-24.63,12.94-26.26-.03-.53-7.41-.06-14.87-.24-22.3Z"/>
    <path class="st30" d="M913.34,855.61c2.72-.09,5.46-.08,8.2-.04,3.69,10.57,7.35,21.15,11.42,31.58-2.5-.03-4.98-.05-7.46-.08-.71-2.31-1.47-4.58-2.2-6.86-3.9.04-7.79.05-11.67.01-.84,2.31-1.65,4.62-2.5,6.93-2.51-.02-5,0-7.49,0,4.16-10.41,8.03-20.94,11.7-31.53ZM913.28,874.4c2.69.08,5.38.12,8.08.13-1.21-3.93-2.6-7.81-3.82-11.74-1.72,3.76-2.77,7.77-4.26,11.61Z"/>
    <path class="st30" d="M1165.42,855.62c2.5-.02,5.01-.04,7.52-.07,1.63,7.23,3.03,14.52,4.87,21.71,1.59-7.29,3.94-14.37,5.56-21.64,2.15-.04,4.33-.05,6.51-.01,1.61,7.19,3.61,14.29,5.58,21.4,1.58-7.13,3.31-14.22,4.8-21.37,2.49-.08,4.99-.07,7.5-.03-2.98,10.46-5.63,21.01-8.3,31.56-2.37-.01-4.73,0-7.08-.02-1.93-6.88-3.65-13.83-5.81-20.64-1.86,6.87-3.99,13.67-5.63,20.61-2.44.01-4.87.03-7.28.02-3.03-10.44-5.15-21.12-8.24-31.52Z"/>
  </g>
  <g>
    <path class="st16" d="M589.27,861.66c.07-2.02.15-4.04.23-6.04.08,1.9.16,3.82.25,5.75,3.11-.06,6.22-.04,9.34.13-3.27.28-6.55.27-9.82.16Z"/>
    <path class="st16" d="M1091.54,887.11c-.42-10.51-.35-21.04.02-31.54.17,10.51.13,21.03-.02,31.54Z"/>
  </g>
  <path class="st17" d="M589.5,855.62c8.66.36,17.32-.04,25.99.13-.02,1.87-.02,3.76-.02,5.66-3.12-.03-6.24-.08-9.35-.11l.02.52c.22,8.44-.04,16.89.06,25.34-2.38-.02-4.74-.03-7.11-.01-.05-8.55-.06-17.11,0-25.65-3.12-.17-6.23-.19-9.34-.13-.09-1.93-.17-3.85-.25-5.75Z"/>
  <path class="st46" d="M1091.56,855.57c6.66.59,13.91-1.43,20.11,1.73,6.59,3.69,5.25,14.4-1.55,17.17,2.85,3.96,4.71,8.53,7.28,12.68-2.58-.03-5.16-.05-7.72,0-2.14-3.79-4.05-7.7-6.09-11.53-1.74-.05-3.47-.07-5.18-.06.1,3.84-.03,7.68-.01,11.53-2.3,0-4.59.01-6.86.02.15-10.51.19-21.03.02-31.54ZM1098.45,861.28c-.04,2.82-.05,5.64-.04,8.47,4.35.54,11.76.74,10.68-5.77-2.24-3.87-6.97-2.57-10.64-2.7Z"/>
  <path class="st12" d="M482.14,861.31c11.78-2.67,13.64,18.67,2.86,20.5-10.59.61-12.18-17.63-2.86-20.5Z"/>
  <path class="st50" d="M360.73,874.41c1.4-3.94,2.6-7.95,4.1-11.85,1.31,3.96,2.6,7.93,4.03,11.86-2.71.17-5.42.12-8.13-.01Z"/>
  <path class="st33" d="M656.33,863.43c6.09-1.06,11.3,6.44,7.99,11.77-2.47,5.15-10.37,5.6-13.54.91-3.8-4.59-.37-12.3,5.55-12.68Z"/>
  <path class="st35" d="M913.28,874.4c1.49-3.84,2.54-7.85,4.26-11.61,1.22,3.93,2.61,7.81,3.82,11.74-2.7,0-5.39-.05-8.08-.13Z"/>
  <path class="st7" d="M1006.29,863.4c5.28-1.09,10.44,4.05,9.36,9.35-.86,6.15-9.51,9.12-13.66,4.27-4.7-4.24-1.83-12.7,4.3-13.62Z"/>
  <path class="st55" d="M202.15,867.8c36.23-1.05,72.58-.12,108.85-.48,2.69-.07,5.39.01,8.04.56-38.97-.01-77.93.02-116.89-.08Z"/>
  <path class="st63" d="M1230.82,867.79c36-1.05,72.13-.08,108.19-.47,2.03.01,4.2-.21,6.12.69-38.1-.42-76.21.05-114.31-.22Z"/>
  <path class="st20" d="M201.62,873.48c-2.5-.82-1.99-6.02.53-5.68,38.96.1,77.92.07,116.89.08,2.25-.16,2.64,4.72.37,5.61-39.26-.23-78.53-.21-117.79-.01Z"/>
  <path class="st39" d="M1230.91,873.61c-1.98-1.47-1.84-4.27-.09-5.82,38.1.27,76.21-.2,114.31.22,1.54.42,1.84,4.96.15,5.36-38.12.15-76.25-.35-114.37.24Z"/>
  <path class="st49" d="M201.62,873.48c39.26-.2,78.53-.22,117.79.01l.69.02c-39.69.56-79.46.54-119.16-.02h.68Z"/>
  <path class="st38" d="M1230.91,873.61c38.12-.59,76.25-.09,114.37-.24-38.04.88-76.26.49-114.37.24Z"/>
</svg>
