<?xml version="1.0" encoding="UTF-8"?>
<svg id="Layer_1" xmlns="http://www.w3.org/2000/svg" version="1.1" viewBox="0 0 800 800">
  <defs>
    <style>
      .st0 {
        fill: #141414;
      }

      .st1 {
        fill: #3daa2c;
      }

      .st2 {
        fill: #3da92c;
      }

      .st3 {
        fill: #3caa2b;
      }

      .st4 {
        fill: #3caa2c;
      }
    </style>
  </defs>
  <path class="st2" d="M283.73,23.32c46.2,26.77,101.71,36.89,154.42,28.39,27.25-4.7,53.55-14.44,77.57-28.09-24.17,80.13-50.32,159.63-75.28,239.52-13.47,39.51-23.98,80.11-40.36,118.58-10.39-27-19.11-54.6-28.06-82.09-28.91-92.27-60.48-183.71-88.29-276.31Z"/>
  <path class="st0" d="M83.07,167.03c80.58-11.73,149.69-68.68,185.11-140.8,36.26,119.36,76.85,237.39,111.52,357.24-80.06-57.5-159.12-116.38-239.15-173.91-19.17-14.17-38.42-28.23-57.48-42.52Z"/>
  <path class="st0" d="M531.69,26.01c19.21,37.64,46.33,71.57,80.41,96.75,31.15,22.51,67.55,38.01,105.5,44.3-99.44,71.42-196.88,145.57-296.47,216.77,35.61-119.65,74.36-238.36,110.57-357.81Z"/>
  <path class="st0" d="M.71,413.61c9.35-1.33,18.82-.39,28.23-.69,113.77.27,227.55-.16,341.3.79-94.77,72.41-189.52,144.92-285.22,216.14.16-2.46.32-4.91.5-7.36.94-10.14,1.51-20.39.09-30.53-2.69-67.71-34.43-133.29-84.9-178.34Z"/>
  <path class="st0" d="M430.9,413.11c111.45.63,222.92-.65,334.4-.24,11.37.37,22.83-.85,34.14.69-60.58,53-91.78,136.33-83.91,216.09-94.96-72.05-189.69-144.45-284.63-216.54Z"/>
  <path class="st0" d="M400.96,433.58c39.99,113.72,76.42,228.66,115.27,342.77-30.62-16.73-64.85-26.98-99.72-29.08-10.58-1.22-21.25-.92-31.85.03-35.35,2.42-69.99,12.67-101.22,29.38,40.78-113.78,78.38-228.73,117.51-343.1Z"/>
  <path class="st4" d="M76,181.47c97.4,71.68,195.01,143.06,292.8,214.18-7.98,1.74-16.18.91-24.28,1.01-114.83.01-229.68-.04-344.51-.1,34.17-29.08,59.8-68.22,72.22-111.39,9.58-33.62,10.3-69.44,3.78-103.69Z"/>
  <path class="st3" d="M432.82,395.87c97.12-71.36,193.92-143.21,291.2-214.36-17.54,78.65,14.04,164.26,75.98,215.05-106.19-.98-212.39.46-318.59.13-16.2-.35-32.45.78-48.59-.82Z"/>
  <g>
    <path class="st1" d="M306.86,482.3c25.32-18.93,50.18-38.53,76.08-56.69-8.53,32.91-20.22,64.87-30.17,97.38-28.3,83.04-56.03,166.28-84.4,249.29-32.94-68.06-100.19-118.77-175.47-128.91,71.59-53.32,143.25-106.56,213.96-161.07Z"/>
    <path class="st1" d="M418.22,425.51c56.36,39.51,110.03,82.64,165.33,123.59,41.11,31.86,82.76,63.03,124.37,94.23-75.77,9.87-142.77,61.18-176.16,129.29-37.54-115.8-77.02-230.98-113.54-347.11Z"/>
  </g>
</svg>